<svg width="37" height="12" viewBox="0 0 37 12" fill="none" xmlns="http://www.w3.org/2000/svg">
<path d="M0.648 10V9.184L3.12 6.508C3.608 5.988 3.996 5.56 4.284 5.224C4.58 4.888 4.796 4.588 4.932 4.324C5.068 4.06 5.136 3.78 5.136 3.484C5.136 2.996 4.992 2.62 4.704 2.356C4.416 2.092 4.036 1.96 3.564 1.96C3.084 1.96 2.676 2.1 2.34 2.38C2.004 2.652 1.772 3.04 1.644 3.544L0.576 3.268C0.68 2.788 0.872 2.372 1.152 2.02C1.432 1.668 1.78 1.396 2.196 1.204C2.612 1.012 3.068 0.916 3.564 0.916C4.108 0.916 4.584 1.024 4.992 1.24C5.408 1.448 5.732 1.74 5.964 2.116C6.204 2.492 6.324 2.928 6.324 3.424C6.324 3.752 6.256 4.072 6.12 4.384C5.984 4.696 5.784 5.028 5.52 5.38C5.256 5.724 4.912 6.124 4.488 6.58L2.28 8.98H6.516V10H0.648ZM10.7116 10.144C10.2396 10.144 9.79959 10.06 9.39159 9.892C8.98359 9.724 8.63159 9.488 8.33559 9.184C8.03959 8.872 7.81959 8.504 7.67559 8.08L8.67159 7.672C8.83959 8.12 9.10359 8.468 9.46359 8.716C9.82359 8.964 10.2396 9.088 10.7116 9.088C11.0796 9.088 11.4076 9.016 11.6956 8.872C11.9836 8.728 12.2076 8.52 12.3676 8.248C12.5356 7.976 12.6196 7.648 12.6196 7.264C12.6196 6.872 12.5356 6.544 12.3676 6.28C12.2076 6.008 11.9836 5.8 11.6956 5.656C11.4076 5.512 11.0756 5.44 10.6996 5.44C10.5796 5.44 10.4476 5.448 10.3036 5.464C10.1676 5.48 10.0516 5.504 9.95559 5.536L9.70359 4.996L12.0916 2.08H8.13159V1.06H13.4236V2.044L11.1436 4.852L11.0716 4.54C11.6076 4.556 12.0796 4.68 12.4876 4.912C12.8956 5.144 13.2156 5.46 13.4476 5.86C13.6796 6.252 13.7956 6.712 13.7956 7.24C13.7956 7.784 13.6636 8.276 13.3996 8.716C13.1356 9.156 12.7716 9.504 12.3076 9.76C11.8436 10.016 11.3116 10.144 10.7116 10.144ZM15.5638 11.668V11.128C15.8118 11.064 15.9998 10.94 16.1278 10.756C16.2558 10.572 16.3278 10.32 16.3438 10H15.8038V8.56H16.9678V9.58C16.9678 10.156 16.8478 10.62 16.6078 10.972C16.3758 11.324 16.0278 11.556 15.5638 11.668ZM21.6938 10.144C21.2298 10.144 20.7938 10.064 20.3858 9.904C19.9778 9.736 19.6218 9.5 19.3178 9.196C19.0218 8.884 18.8058 8.52 18.6698 8.104L19.6298 7.696C19.7978 8.136 20.0698 8.48 20.4458 8.728C20.8298 8.968 21.2458 9.088 21.6938 9.088C22.0618 9.088 22.3858 9.008 22.6658 8.848C22.9538 8.68 23.1778 8.452 23.3378 8.164C23.4978 7.868 23.5778 7.54 23.5778 7.18C23.5778 6.804 23.4938 6.472 23.3258 6.184C23.1658 5.896 22.9458 5.672 22.6658 5.512C22.3858 5.344 22.0658 5.26 21.7058 5.26C21.3378 5.26 21.0018 5.344 20.6978 5.512C20.3938 5.68 20.1738 5.892 20.0378 6.148L19.0898 5.944L19.7738 1.06H24.4058V2.08H20.2178L20.6738 1.624L20.1458 5.416L19.7378 5.176C20.0018 4.84 20.3098 4.6 20.6618 4.456C21.0218 4.304 21.4098 4.228 21.8258 4.228C22.4098 4.228 22.9218 4.36 23.3618 4.624C23.8018 4.888 24.1458 5.24 24.3938 5.68C24.6418 6.12 24.7658 6.62 24.7658 7.18C24.7658 7.74 24.6298 8.244 24.3578 8.692C24.0938 9.14 23.7298 9.496 23.2658 9.76C22.8098 10.016 22.2858 10.144 21.6938 10.144ZM27.2043 10L34.5003 1.06H35.8323L28.5363 10H27.2043ZM28.5483 5.596C28.1083 5.596 27.7123 5.492 27.3603 5.284C27.0083 5.068 26.7243 4.784 26.5083 4.432C26.3003 4.08 26.1963 3.688 26.1963 3.256C26.1963 2.824 26.3003 2.432 26.5083 2.08C26.7243 1.72 27.0083 1.436 27.3603 1.228C27.7123 1.02 28.1083 0.916 28.5483 0.916C28.9803 0.916 29.3723 1.02 29.7243 1.228C30.0763 1.436 30.3563 1.72 30.5643 2.08C30.7723 2.432 30.8763 2.824 30.8763 3.256C30.8763 3.688 30.7723 4.08 30.5643 4.432C30.3563 4.784 30.0763 5.068 29.7243 5.284C29.3723 5.492 28.9803 5.596 28.5483 5.596ZM28.5363 4.612C28.8083 4.612 29.0403 4.548 29.2323 4.42C29.4243 4.292 29.5763 4.124 29.6883 3.916C29.8003 3.708 29.8563 3.488 29.8563 3.256C29.8563 3.016 29.8003 2.796 29.6883 2.596C29.5763 2.388 29.4243 2.22 29.2323 2.092C29.0403 1.956 28.8083 1.888 28.5363 1.888C28.2803 1.888 28.0523 1.956 27.8523 2.092C27.6523 2.22 27.4963 2.388 27.3843 2.596C27.2723 2.804 27.2163 3.024 27.2163 3.256C27.2163 3.48 27.2723 3.7 27.3843 3.916C27.4963 4.124 27.6523 4.292 27.8523 4.42C28.0523 4.548 28.2803 4.612 28.5363 4.612ZM34.4163 10.144C33.9763 10.144 33.5803 10.04 33.2283 9.832C32.8763 9.616 32.5923 9.332 32.3763 8.98C32.1683 8.628 32.0643 8.236 32.0643 7.804C32.0643 7.372 32.1683 6.98 32.3763 6.628C32.5923 6.268 32.8763 5.984 33.2283 5.776C33.5803 5.568 33.9763 5.464 34.4163 5.464C34.8483 5.464 35.2403 5.568 35.5923 5.776C35.9443 5.984 36.2243 6.268 36.4323 6.628C36.6403 6.98 36.7443 7.372 36.7443 7.804C36.7443 8.236 36.6403 8.628 36.4323 8.98C36.2243 9.332 35.9443 9.616 35.5923 9.832C35.2403 10.04 34.8483 10.144 34.4163 10.144ZM34.4163 9.16C34.6803 9.16 34.9083 9.096 35.1003 8.968C35.3003 8.84 35.4523 8.672 35.5563 8.464C35.6683 8.256 35.7243 8.036 35.7243 7.804C35.7243 7.564 35.6683 7.344 35.5563 7.144C35.4523 6.936 35.3003 6.768 35.1003 6.64C34.9083 6.504 34.6803 6.436 34.4163 6.436C34.1603 6.436 33.9283 6.504 33.7203 6.64C33.5203 6.768 33.3643 6.936 33.2523 7.144C33.1403 7.352 33.0843 7.572 33.0843 7.804C33.0843 8.028 33.1403 8.248 33.2523 8.464C33.3643 8.672 33.5203 8.84 33.7203 8.968C33.9283 9.096 34.1603 9.16 34.4163 9.16Z" fill="#34CAA5"/>
</svg>
